{
	"asset":{
		"generator":"Khronos glTF Blender I/O v4.4.56",
		"version":"2.0"
	},
	"scene":0,
	"scenes":[
		{
			"name":"Scene",
			"nodes":[
				0
			]
		}
	],
	"nodes":[
		{
			"mesh":0,
			"name":"SF_Bld_Elven_House_07",
			"rotation":[
				0.7071068286895752,
				0,
				0,
				0.7071068286895752
			],
			"scale":[
				0.009999999776482582,
				0.009999999776482582,
				0.009999999776482582
			],
			"translation":[
				2.2673065662384033,
				0,
				3.7868659496307373
			]
		}
	],
	"materials":[
		{
			"doubleSided":true,
			"name":"AboutMe_House",
			"pbrMetallicRoughness":{
				"baseColorTexture":{
					"index":0
				},
				"metallicFactor":0,
				"roughnessFactor":0.5
			}
		}
	],
	"meshes":[
		{
			"name":"Mesh",
			"primitives":[
				{
					"attributes":{
						"POSITION":0,
						"NORMAL":1,
						"TEXCOORD_0":2,
						"COLOR_0":3,
						"COLOR_1":4
					},
					"indices":5,
					"material":0
				}
			]
		}
	],
	"textures":[
		{
			"sampler":0,
			"source":0
		}
	],
	"images":[
		{
			"mimeType":"image/png",
			"name":"Medieval_Texture",
			"uri":"Medieval_Texture.png"
		}
	],
	"accessors":[
		{
			"bufferView":0,
			"componentType":5126,
			"count":19741,
			"max":[
				-180.77914428710938,
				-361.77947998046875,
				4.973799150320701e-14
			],
			"min":[
				-272.6821594238281,
				-395.59375,
				-35.30313491821289
			],
			"type":"VEC3"
		},
		{
			"bufferView":1,
			"componentType":5126,
			"count":19741,
			"type":"VEC3"
		},
		{
			"bufferView":2,
			"componentType":5126,
			"count":19741,
			"type":"VEC2"
		},
		{
			"bufferView":3,
			"componentType":5121,
			"count":19741,
			"normalized":true,
			"type":"VEC4"
		},
		{
			"bufferView":4,
			"componentType":5123,
			"count":19741,
			"normalized":true,
			"type":"VEC4"
		},
		{
			"bufferView":5,
			"componentType":5123,
			"count":32751,
			"type":"SCALAR"
		}
	],
	"bufferViews":[
		{
			"buffer":0,
			"byteLength":236892,
			"byteOffset":0,
			"target":34962
		},
		{
			"buffer":0,
			"byteLength":236892,
			"byteOffset":236892,
			"target":34962
		},
		{
			"buffer":0,
			"byteLength":157928,
			"byteOffset":473784,
			"target":34962
		},
		{
			"buffer":0,
			"byteLength":78964,
			"byteOffset":631712,
			"target":34962
		},
		{
			"buffer":0,
			"byteLength":157928,
			"byteOffset":710676,
			"target":34962
		},
		{
			"buffer":0,
			"byteLength":65502,
			"byteOffset":868604,
			"target":34963
		}
	],
	"samplers":[
		{
			"magFilter":9729,
			"minFilter":9987
		}
	],
	"buffers":[
		{
			"byteLength":934108,
			"uri":"AboutMe_House.bin"
		}
	]
}
