{
	"asset":{
		"generator":"Khronos glTF Blender I/O v4.4.56",
		"version":"2.0"
	},
	"scene":0,
	"scenes":[
		{
			"name":"Scene",
			"nodes":[
				0
			]
		}
	],
	"nodes":[
		{
			"mesh":0,
			"name":"MeshBaker__0__mesh_mesh",
			"rotation":[
				0.7071068286895752,
				0,
				0,
				0.7071068286895752
			],
			"scale":[
				0.009999999776482582,
				0.009999999776482582,
				0.009999999776482582
			]
		}
	],
	"materials":[
		{
			"doubleSided":true,
			"name":"Medieval_Material",
			"pbrMetallicRoughness":{
				"baseColorTexture":{
					"index":0
				},
				"metallicFactor":0
			}
		}
	],
	"meshes":[
		{
			"name":"Scene",
			"primitives":[
				{
					"attributes":{
						"POSITION":0,
						"NORMAL":1,
						"TEXCOORD_0":2
					},
					"indices":3,
					"material":0
				}
			]
		}
	],
	"textures":[
		{
			"sampler":0,
			"source":0
		}
	],
	"images":[
		{
			"mimeType":"image/png",
			"name":"Medieval_Texture",
			"uri":"Medieval_Texture.png"
		}
	],
	"accessors":[
		{
			"bufferView":0,
			"componentType":5126,
			"count":24577,
			"max":[
				5000.0078125,
				5000,
				362.61907958984375
			],
			"min":[
				-5000,
				-5000.0078125,
				-3110.6728515625
			],
			"type":"VEC3"
		},
		{
			"bufferView":1,
			"componentType":5126,
			"count":24577,
			"type":"VEC3"
		},
		{
			"bufferView":2,
			"componentType":5126,
			"count":24577,
			"type":"VEC2"
		},
		{
			"bufferView":3,
			"componentType":5123,
			"count":38058,
			"type":"SCALAR"
		}
	],
	"bufferViews":[
		{
			"buffer":0,
			"byteLength":294924,
			"byteOffset":0,
			"target":34962
		},
		{
			"buffer":0,
			"byteLength":294924,
			"byteOffset":294924,
			"target":34962
		},
		{
			"buffer":0,
			"byteLength":196616,
			"byteOffset":589848,
			"target":34962
		},
		{
			"buffer":0,
			"byteLength":76116,
			"byteOffset":786464,
			"target":34963
		}
	],
	"samplers":[
		{
			"magFilter":9729,
			"minFilter":9987
		}
	],
	"buffers":[
		{
			"byteLength":862580,
			"uri":"Environment.bin"
		}
	]
}
