{
	"asset":{
		"generator":"Khronos glTF Blender I/O v4.4.56",
		"version":"2.0"
	},
	"scene":0,
	"scenes":[
		{
			"name":"Scene",
			"nodes":[
				0
			]
		}
	],
	"nodes":[
		{
			"mesh":0,
			"name":"HouseProjects",
			"rotation":[
				0.7071068286895752,
				0,
				0,
				0.7071068286895752
			],
			"scale":[
				0.009999999776482582,
				0.009999999776482582,
				0.009999999776482582
			]
		}
	],
	"materials":[
		{
			"doubleSided":true,
			"name":"Medieval_Material",
			"pbrMetallicRoughness":{
				"baseColorTexture":{
					"index":0
				},
				"metallicFactor":0
			}
		}
	],
	"meshes":[
		{
			"name":"Scene.003",
			"primitives":[
				{
					"attributes":{
						"POSITION":0,
						"NORMAL":1,
						"TEXCOORD_0":2
					},
					"indices":3,
					"material":0
				}
			]
		}
	],
	"textures":[
		{
			"sampler":0,
			"source":0
		}
	],
	"images":[
		{
			"mimeType":"image/png",
			"name":"Medieval_Texture",
			"uri":"Medieval_Texture.png"
		}
	],
	"accessors":[
		{
			"bufferView":0,
			"componentType":5126,
			"count":5417,
			"max":[
				3276.3642578125,
				-62.830345153808594,
				-2.921295166015625
			],
			"min":[
				1070.6370849609375,
				-2626.37451171875,
				-1426.9661865234375
			],
			"type":"VEC3"
		},
		{
			"bufferView":1,
			"componentType":5126,
			"count":5417,
			"type":"VEC3"
		},
		{
			"bufferView":2,
			"componentType":5126,
			"count":5417,
			"type":"VEC2"
		},
		{
			"bufferView":3,
			"componentType":5123,
			"count":9054,
			"type":"SCALAR"
		}
	],
	"bufferViews":[
		{
			"buffer":0,
			"byteLength":65004,
			"byteOffset":0,
			"target":34962
		},
		{
			"buffer":0,
			"byteLength":65004,
			"byteOffset":65004,
			"target":34962
		},
		{
			"buffer":0,
			"byteLength":43336,
			"byteOffset":130008,
			"target":34962
		},
		{
			"buffer":0,
			"byteLength":18108,
			"byteOffset":173344,
			"target":34963
		}
	],
	"samplers":[
		{
			"magFilter":9729,
			"minFilter":9987
		}
	],
	"buffers":[
		{
			"byteLength":191452,
			"uri":"ProjectsHouse.bin"
		}
	]
}
